# This file uses centimeters as units for non-parametric coordinates.

mtllib Boomerang.mtl
g default
v 9.041393 1.796759 4.750065
v 9.041393 1.976755 4.750065
v 7.898335 1.796759 4.750065
v 7.898335 1.976755 4.750065
v 7.898335 1.796759 2.818414
v 7.898335 1.976755 2.818414
v 9.041393 1.796759 2.818414
v 9.041393 1.976755 2.818414
v 9.041393 1.796759 4.750065
v 9.041393 1.976755 4.750065
v 7.898335 1.976755 4.750065
v 7.898335 1.796759 4.750065
v 7.898335 1.796759 2.818414
v 7.898335 1.976755 2.818414
v 9.041393 1.976755 2.818414
v 9.041393 1.796759 2.818414
v 8.659737 1.796759 5.636893
v 8.659737 1.976755 5.636893
v 7.516679 1.976755 5.636893
v 7.516679 1.796759 5.636893
v 7.516679 1.796759 1.931586
v 7.516679 1.976755 1.931586
v 8.659737 1.976755 1.931586
v 8.659737 1.796759 1.931586
v 6.916169 1.796759 7.322649
v 6.916169 1.976755 7.322649
v 6.176578 1.976755 6.885291
v 6.176578 1.796759 6.885291
v 6.176579 1.796759 0.683188
v 6.176579 1.976755 0.683188
v 6.905946 1.976755 0.379395
v 6.905946 1.796759 0.379395
v 8.237317 1.796759 3.756572
v 9.375995 1.796759 3.756572
v 9.375995 1.976755 3.756572
v 8.237317 1.976755 3.756572
v 7.592670 1.796759 6.630941
v 6.449612 1.796759 6.630941
v 6.449612 1.976755 6.630941
v 7.592670 1.976755 6.630941
v 6.440649 1.796759 0.929189
v 7.583707 1.796759 0.929189
v 7.583707 1.976755 0.929189
v 6.440649 1.976755 0.929189
vt 0.000000 0.000034
vt 0.000000 0.000034
vt 0.000000 0.000034
vt 0.000000 0.000034
vt 0.000000 0.000034
vt 0.000000 0.000034
vt 0.000000 0.000034
vt 0.000000 0.000034
vt 0.000000 0.000034
vt 0.000000 0.000034
vt 0.000000 0.000034
vt 0.000000 0.000034
vt 0.066570 0.337284
vt 0.000000 0.163829
vt 0.226543 0.163829
vt 0.293984 0.337284
vt 0.066570 0.000034
vt 0.293984 0.000034
vt 0.293984 0.337284
vt 0.066570 0.337284
vt 0.369916 0.492117
vt 0.142502 0.492117
vt 0.582212 0.665670
vt 0.354797 0.665670
vt 0.636533 0.710077
vt 0.489389 0.786436
vt 0.465815 0.173490
vt 0.239271 0.173490
vt 0.305841 0.000034
vt 0.533256 0.000034
vt 0.305841 0.337284
vt 0.533256 0.337284
vt 0.533256 0.337284
vt 0.305841 0.337284
vt 0.609188 0.492117
vt 0.381773 0.492117
vt 0.823267 0.667128
vt 0.595852 0.667128
vt 0.875804 0.710077
vt 0.730695 0.763117
vt 0.513558 0.277971
vt 0.513558 0.050557
vt 0.668390 0.126488
vt 0.668390 0.353902
vt 0.841943 0.338784
vt 0.841943 0.566198
vt 0.962709 0.473375
vt 0.886350 0.620518
vt 0.000000 0.657452
vt 0.000000 0.430038
vt 0.154833 0.505970
vt 0.154833 0.733384
vt 0.329843 0.720048
vt 0.329843 0.947462
vt 0.425832 0.854891
vt 0.372792 1.000000
vt 0.000000 0.706128
vt 0.095778 0.706128
vt 0.095778 0.774863
vt 0.000000 0.774863
vt 0.095778 0.839770
vt 0.000000 0.839770
vt 0.589424 0.799361
vt 0.685135 0.799361
vt 0.685135 0.868047
vt 0.589424 0.868047
vt 0.589424 0.734500
vt 0.685135 0.734500
vt 0.000000 0.000017
vt 0.000000 0.000034
vt 0.000000 0.000034
vt 0.000000 0.000017
vt 0.729486 0.000034
vt 0.836303 0.000034
vt 0.836303 0.068462
vt 0.729486 0.068462
vt 0.836303 0.145163
vt 0.729486 0.145163
vt 0.836303 0.198535
vt 0.729486 0.198535
vt 0.964354 0.355178
vt 0.857875 0.355178
vt 0.857875 0.286967
vt 0.964354 0.286967
vt 0.857875 0.210510
vt 0.964354 0.210510
vt 0.857875 0.190946
vt 0.964354 0.190946
vt 0.892891 0.607827
vt 0.999369 0.607827
vt 0.999369 0.676038
vt 0.892891 0.676038
vt 0.999369 0.753137
vt 0.892891 0.753137
vt 0.999369 0.772059
vt 0.892891 0.772059
vt 0.948727 0.190946
vt 0.840367 0.190946
vt 0.840367 0.121530
vt 0.948727 0.121530
vt 0.840367 0.043069
vt 0.948727 0.043069
vt 0.840367 0.000034
vt 0.948727 0.000034
vt 0.606932 0.093971
vt 0.606932 0.000034
vt 0.664120 0.000034
vt 0.664120 0.093971
vt 0.665291 0.090743
vt 0.665291 0.000034
vt 0.719750 0.000034
vt 0.719750 0.090743
vt 0.000000 0.000034
vt 0.000000 0.000000
vt 0.000000 0.000000
vt 0.000000 0.000034
vt 0.000000 0.000018
vt 0.000000 0.000034
vt 0.000000 0.000034
vt 0.000000 0.000018
vn -0.509012 -0.000000 0.860759
vn -0.509012 -0.000000 0.860759
vn -0.509012 -0.000000 0.860759
vn -0.509012 -0.000000 0.860759
vn -0.946425 -0.000000 -0.322922
vn -0.946425 -0.000000 -0.322922
vn -1.000000 -0.000000 -0.000000
vn -1.000000 -0.000000 -0.000000
vn -0.384497 -0.000000 -0.923126
vn -0.384497 -0.000000 -0.923126
vn -0.384497 -0.000000 -0.923126
vn -0.384497 -0.000000 -0.923126
vn 1.000000 0.000000 0.000000
vn 1.000000 0.000000 0.000000
vn 0.947695 0.000000 0.319178
vn 0.947695 0.000000 0.319178
vn -0.000000 1.000000 0.000000
vn -0.000000 1.000000 0.000000
vn -0.000000 1.000000 0.000000
vn -0.000000 1.000000 0.000000
vn 0.000000 -1.000000 0.000000
vn 0.000000 -1.000000 0.000000
vn 0.000000 -1.000000 0.000000
vn 0.000000 -1.000000 0.000000
vn -0.194250 -0.000000 -0.980952
vn -0.194250 -0.000000 -0.980952
vn -0.194250 -0.000000 -0.980952
vn -0.194250 -0.000000 -0.980952
vn -0.000000 0.000000 0.000000
vn -0.000000 0.000000 0.000000
vn -0.000000 0.000000 0.000000
vn -0.000000 0.000000 0.000000
vn 1.000000 0.000000 0.000000
vn 1.000000 0.000000 0.000000
vn 1.000000 0.000000 0.000000
vn 1.000000 0.000000 0.000000
vn 0.000000 0.000000 0.000000
vn 0.000000 0.000000 0.000000
vn 0.000000 0.000000 0.000000
vn 0.000000 0.000000 0.000000
vn 0.000000 0.000000 0.000000
vn 0.000000 0.000000 0.000000
vn 0.000000 0.000000 0.000000
vn 0.000000 0.000000 0.000000
vn 0.000000 0.000000 0.000000
vn 0.000000 0.000000 0.000000
vn 0.000000 0.000000 0.000000
vn 0.000000 0.000000 0.000000
vn 0.000000 0.000000 1.000000
vn 0.000000 0.000000 1.000000
vn 0.000000 0.000000 1.000000
vn 0.000000 0.000000 1.000000
vn 0.000000 -0.000000 0.000000
vn 0.000000 -0.000000 0.000000
vn 0.000000 -0.000000 0.000000
vn 0.000000 -0.000000 0.000000
vn 0.918549 0.000000 0.395308
vn 0.918549 0.000000 0.395308
vn 0.918549 0.000000 0.395308
vn 0.918549 0.000000 0.395308
vn -0.000000 1.000000 0.000000
vn -0.000000 1.000000 0.000000
vn -0.000000 1.000000 0.000000
vn -0.000000 1.000000 0.000000
vn -0.918549 -0.000000 -0.395308
vn -0.918549 -0.000000 -0.395308
vn -0.918549 -0.000000 -0.395308
vn -0.918549 -0.000000 -0.395308
vn 0.000000 -1.000000 0.000000
vn 0.000000 -1.000000 0.000000
vn 0.000000 -1.000000 0.000000
vn 0.000000 -1.000000 0.000000
vn -0.918549 -0.000000 0.395308
vn -0.918549 -0.000000 0.395308
vn -0.918549 -0.000000 0.395308
vn -0.918549 -0.000000 0.395308
vn -0.000000 1.000000 0.000000
vn -0.000000 1.000000 0.000000
vn -0.000000 1.000000 0.000000
vn -0.000000 1.000000 0.000000
vn 0.918549 0.000000 -0.395308
vn 0.918549 0.000000 -0.395308
vn 0.918549 0.000000 -0.395308
vn 0.918549 0.000000 -0.395308
vn 0.000000 -1.000000 0.000000
vn 0.000000 -1.000000 0.000000
vn 0.000000 -1.000000 0.000000
vn 0.000000 -1.000000 0.000000
vn 0.681628 0.000000 0.731699
vn 0.681628 0.000000 0.731699
vn 0.695088 0.000000 0.718925
vn 0.695088 0.000000 0.718925
vn -0.000000 1.000000 0.000000
vn -0.000000 1.000000 0.000000
vn -0.000000 1.000000 0.000000
vn -0.000000 1.000000 0.000000
vn -0.681628 -0.000000 -0.731699
vn -0.681628 -0.000000 -0.731699
vn -0.681628 -0.000000 -0.731699
vn -0.681628 -0.000000 -0.731699
vn 0.000000 -1.000000 0.000000
vn 0.000000 -1.000000 0.000000
vn 0.000000 -1.000000 0.000000
vn 0.000000 -1.000000 0.000000
vn -0.681629 -0.000000 0.731699
vn -0.681629 -0.000000 0.731699
vn -0.681629 -0.000000 0.731698
vn -0.681629 -0.000000 0.731698
vn -0.000000 1.000000 0.000000
vn -0.000000 1.000000 0.000000
vn -0.000000 1.000000 0.000000
vn -0.000000 1.000000 0.000000
vn 0.681628 0.000000 -0.731699
vn 0.681628 0.000000 -0.731699
vn 0.662756 0.000000 -0.748835
vn 0.662756 0.000000 -0.748835
vn 0.000000 -1.000000 0.000000
vn 0.000000 -1.000000 0.000000
vn -0.000000 -1.000000 0.000000
vn -0.000000 -1.000000 0.000000
vn 0.000000 -1.000000 0.000000
vn 0.000000 -1.000000 0.000000
vn 0.941886 0.000000 -0.335932
vn 0.941886 0.000000 -0.335932
vn -0.000000 1.000000 0.000000
vn -0.000000 1.000000 0.000000
vn -0.940489 -0.000000 0.339824
vn -0.940489 -0.000000 0.339824
vn 0.000000 -1.000000 0.000000
vn 0.000000 -1.000000 0.000000
vn -0.681629 -0.000000 -0.731698
vn -0.681629 -0.000000 -0.731698
vn -0.000000 1.000000 0.000000
vn -0.000000 1.000000 0.000000
vn 0.714922 0.000000 0.699204
vn 0.714922 0.000000 0.699204
vn -0.000000 -1.000000 0.000000
vn -0.000000 -1.000000 0.000000
vn 0.629980 0.000000 -0.776611
vn 0.629980 0.000000 -0.776611
vn -0.000000 1.000000 0.000000
vn -0.000000 1.000000 0.000000
vn -0.681629 -0.000000 0.731698
vn -0.681629 -0.000000 0.731698
s off
g pCube4
usemtl initialShadingGroup
f 25/105/1 26/106/2 27/107/3 28/108/4
s 1
f 3/57/5 4/58/6 36/59/7 33/60/8
s off
f 29/109/9 30/110/10 31/111/11 32/112/12
s 2
f 34/63/13 35/64/14 2/65/15 1/66/16
s 3
f 2/13/17 35/14/18 36/15/19 4/16/20
s 4
f 33/27/21 34/28/22 1/29/23 3/30/24
s off
f 1/113/25 2/114/26 10/115/27 9/116/28
f 2/13/29 4/16/30 11/19/31 10/20/32
f 4/69/33 3/70/34 12/71/35 11/72/36
f 3/1/37 1/2/38 9/8/39 12/3/40
f 5/7/41 6/4/42 14/5/43 13/6/44
f 6/9/45 8/10/46 15/11/47 14/12/48
f 8/117/49 7/118/50 16/119/51 15/120/52
f 7/31/53 5/32/54 13/33/55 16/34/56
f 9/73/57 10/74/58 18/75/59 17/76/60
f 10/20/61 11/19/62 19/21/63 18/22/64
f 11/81/65 12/82/66 20/83/67 19/84/68
f 12/41/69 9/42/70 17/43/71 20/44/72
f 13/89/73 14/90/74 22/91/75 21/92/76
f 14/49/77 15/50/78 23/51/79 22/52/80
f 15/97/81 16/98/82 24/99/83 23/100/84
f 16/34/85 13/33/86 21/35/87 24/36/88
s 5
f 17/76/89 18/75/90 40/77/91 37/78/92
s 6
f 18/22/93 19/21/94 39/23/95 40/24/96
s 7
f 19/84/97 20/83/98 38/85/99 39/86/100
s 8
f 20/44/101 17/43/102 37/45/103 38/46/104
s 9
f 21/92/105 22/91/106 44/93/107 41/94/108
s 10
f 22/52/109 23/51/110 43/53/111 44/54/112
s 11
f 23/100/113 24/99/114 42/101/115 43/102/116
s 12
f 24/36/117 21/35/118 41/37/119 42/38/120
s 4
f 7/31/121 34/28/22 33/27/21 5/32/122
s 2
f 7/67/123 8/68/124 35/64/14 34/63/13
s 3
f 36/15/19 35/14/18 8/17/125 6/18/126
s 1
f 33/60/8 36/59/7 6/61/127 5/62/128
s 8
f 38/46/104 37/45/103 25/47/129 28/48/130
s 7
f 39/86/100 38/85/99 28/87/131 27/88/132
s 6
f 40/24/96 39/23/95 27/25/133 26/26/134
s 5
f 37/78/92 40/77/91 26/79/135 25/80/136
s 12
f 42/38/120 41/37/119 29/39/137 32/40/138
s 11
f 43/102/116 42/101/115 32/103/139 31/104/140
s 10
f 44/54/112 43/53/111 31/55/141 30/56/142
s 9
f 41/94/108 44/93/107 30/95/143 29/96/144
