# This file uses centimeters as units for non-parametric coordinates.

mtllib Brick.mtl
g default
v -0.985308 0.062821 -6.086588
v -0.939320 0.016833 -6.086588
v -0.876499 -0.000000 -6.086588
v -0.876499 0.016833 -6.023767
v -0.876499 0.062821 -5.977778
v -0.876499 0.125642 -5.960945
v -0.939320 0.125642 -5.977778
v -0.985308 0.125642 -6.023767
v -1.002141 0.125642 -6.086588
v 1.846191 0.016833 -6.086588
v 1.892179 0.062821 -6.086588
v 1.909012 0.125642 -6.086588
v 1.892179 0.125642 -6.023767
v 1.846191 0.125642 -5.977778
v 1.783370 0.125642 -5.960945
v 1.783370 0.062821 -5.977778
v 1.783370 0.016833 -6.023767
v 1.783370 -0.000000 -6.086588
v -0.939320 1.658563 -6.086588
v -0.985308 1.612575 -6.086588
v -1.002141 1.549754 -6.086588
v -0.985308 1.549754 -6.023767
v -0.939320 1.549754 -5.977778
v -0.876499 1.549754 -5.960945
v -0.876499 1.612575 -5.977778
v -0.876499 1.658563 -6.023767
v -0.876499 1.675396 -6.086588
v 1.892179 1.612575 -6.086588
v 1.846191 1.658563 -6.086588
v 1.783370 1.675396 -6.086588
v 1.783370 1.658563 -6.023767
v 1.783370 1.612575 -5.977778
v 1.783370 1.549754 -5.960945
v 1.846191 1.549754 -5.977778
v 1.892179 1.549754 -6.023767
v 1.909012 1.549754 -6.086588
v -0.939320 1.549754 -11.872929
v -0.985308 1.549754 -11.826941
v -1.002141 1.549754 -11.764119
v -0.985308 1.612575 -11.764119
v -0.939320 1.658563 -11.764119
v -0.876499 1.675396 -11.764119
v -0.876499 1.658563 -11.826941
v -0.876499 1.612575 -11.872929
v -0.876499 1.549754 -11.889761
v 1.892179 1.549754 -11.826941
v 1.846191 1.549754 -11.872929
v 1.783370 1.549754 -11.889761
v 1.783370 1.612575 -11.872929
v 1.783370 1.658563 -11.826941
v 1.783370 1.675396 -11.764119
v 1.846191 1.658563 -11.764119
v 1.892179 1.612575 -11.764119
v 1.909012 1.549754 -11.764119
v -0.939320 0.016833 -11.764119
v -0.985308 0.062821 -11.764119
v -1.002141 0.125642 -11.764119
v -0.985308 0.125642 -11.826941
v -0.939320 0.125642 -11.872929
v -0.876499 0.125642 -11.889761
v -0.876499 0.062821 -11.872929
v -0.876499 0.016833 -11.826941
v -0.876499 -0.000000 -11.764119
v 1.892179 0.062821 -11.764119
v 1.846191 0.016833 -11.764119
v 1.783370 -0.000000 -11.764119
v 1.783370 0.016833 -11.826941
v 1.783370 0.062821 -11.872929
v 1.783370 0.125642 -11.889761
v 1.846191 0.125642 -11.872929
v 1.892179 0.125642 -11.826941
v 1.909012 0.125642 -11.764119
v -0.975860 0.071354 -6.032300
v -0.930787 0.026281 -6.032300
v -0.930787 0.071354 -5.987227
v 1.837658 0.026281 -6.032300
v 1.882731 0.071354 -6.032300
v 1.837658 0.071354 -5.987227
v -0.930787 1.649115 -6.032300
v -0.975860 1.604042 -6.032300
v -0.930787 1.604042 -5.987227
v 1.882731 1.604042 -6.032300
v 1.837658 1.649115 -6.032300
v 1.837658 1.604042 -5.987227
v -0.930787 1.604042 -11.863480
v -0.975860 1.604042 -11.818407
v -0.930787 1.649115 -11.818407
v 1.882731 1.604042 -11.818407
v 1.837658 1.604042 -11.863480
v 1.837658 1.649115 -11.818407
v -0.930787 0.026281 -11.818407
v -0.975860 0.071354 -11.818407
v -0.930787 0.071354 -11.863480
v 1.882731 0.071354 -11.818407
v 1.837658 0.026281 -11.818407
v 1.837658 0.071354 -11.863480
vt 0.303201 0.013102
vt 0.309720 0.013102
vt 0.309720 0.602338
vt 0.303201 0.602338
vt 0.309720 0.006583
vt 0.304086 0.007468
vt 0.457520 0.013102
vt 0.457520 0.602338
vt 0.309720 0.608858
vt 0.304086 0.607972
vt 0.298428 0.013102
vt 0.298428 0.602338
vt 0.457520 0.006583
vt 0.299408 0.007468
vt 0.304086 0.002790
vt 0.309720 0.001810
vt 0.464040 0.013102
vt 0.464040 0.602338
vt 0.457520 0.608858
vt 0.309720 0.613630
vt 0.304086 0.612650
vt 0.299408 0.607972
vt 0.457520 0.001810
vt 0.463154 0.007468
vt 0.468813 0.013102
vt 0.468813 0.602338
vt 0.463154 0.607972
vt 0.457520 0.613630
vt 0.463154 0.002790
vt 0.467832 0.007468
vt 0.467832 0.607972
vt 0.463154 0.612650
vt 0.487075 0.602338
vt 0.480555 0.602338
vt 0.480555 0.013102
vt 0.487075 0.013102
vt 0.487075 0.608858
vt 0.481441 0.607972
vt 0.475782 0.602338
vt 0.475782 0.013102
vt 0.487075 0.006583
vt 0.481441 0.007468
vt 0.634875 0.013102
vt 0.634875 0.602338
vt 0.634875 0.608858
vt 0.487075 0.613630
vt 0.481441 0.612650
vt 0.476763 0.607972
vt 0.476763 0.007468
vt 0.634875 0.006583
vt 0.481441 0.002790
vt 0.487075 0.001810
vt 0.641394 0.602338
vt 0.641394 0.013102
vt 0.640509 0.607972
vt 0.634875 0.613630
vt 0.640509 0.007468
vt 0.634875 0.001810
vt 0.646167 0.602338
vt 0.646167 0.013102
vt 0.645187 0.607972
vt 0.640509 0.612650
vt 0.640509 0.002790
vt 0.645187 0.007468
vt 0.008512 0.602338
vt 0.001992 0.602338
vt 0.001992 0.013102
vt 0.008512 0.013102
vt 0.008512 0.608858
vt 0.002878 0.607972
vt 0.008512 0.006583
vt 0.002878 0.007468
vt 0.284563 0.013102
vt 0.284563 0.602338
vt 0.284563 0.608858
vt 0.008512 0.613630
vt 0.002878 0.612650
vt 0.284563 0.006583
vt 0.002878 0.002790
vt 0.008512 0.001810
vt 0.291083 0.602338
vt 0.291083 0.013102
vt 0.290197 0.607972
vt 0.284563 0.613630
vt 0.284563 0.001810
vt 0.290197 0.007468
vt 0.290197 0.612650
vt 0.290197 0.002790
vt 0.653137 0.013103
vt 0.659657 0.013103
vt 0.659657 0.602338
vt 0.653137 0.602338
vt 0.659657 0.006583
vt 0.654023 0.007468
vt 0.935708 0.013103
vt 0.935708 0.602338
vt 0.659657 0.608858
vt 0.654023 0.607972
vt 0.935708 0.006583
vt 0.654023 0.002790
vt 0.659657 0.001810
vt 0.942228 0.013103
vt 0.942228 0.602338
vt 0.935708 0.608858
vt 0.659657 0.613630
vt 0.654023 0.612650
vt 0.935708 0.001810
vt 0.941342 0.007468
vt 0.941342 0.607972
vt 0.935708 0.613630
vt 0.941342 0.002790
vt 0.941342 0.612650
vt 0.843689 0.900193
vt 0.837169 0.900193
vt 0.837169 0.624142
vt 0.843689 0.624142
vt 0.843689 0.906712
vt 0.838054 0.905827
vt 0.843689 0.617622
vt 0.838054 0.618507
vt 0.991488 0.624142
vt 0.991488 0.900193
vt 0.991488 0.906712
vt 0.991488 0.617622
vt 0.998008 0.900193
vt 0.998008 0.624142
vt 0.997122 0.905827
vt 0.997122 0.618507
vt 0.676714 0.906712
vt 0.676714 0.900193
vt 0.824514 0.900193
vt 0.824514 0.906712
vt 0.670194 0.900193
vt 0.671080 0.905827
vt 0.676714 0.624142
vt 0.824514 0.624142
vt 0.831034 0.900193
vt 0.830148 0.905827
vt 0.670194 0.624142
vt 0.676714 0.617622
vt 0.824514 0.617622
vt 0.831034 0.624142
vt 0.671080 0.618507
vt 0.830148 0.618507
vn -0.006165 -0.999977 0.002915
vn -0.258613 -0.965979 0.002069
vn -0.258613 -0.965979 -0.002069
vn -0.006165 -0.999977 -0.002915
vn -0.707105 -0.707106 0.002180
vn -0.866042 -0.499967 0.002200
vn -0.866042 -0.499967 -0.002200
vn -0.707105 -0.707106 -0.002180
vn -0.999932 -0.011289 0.002901
vn -0.999932 -0.011289 -0.002901
vn -0.006117 -0.011255 0.999918
vn -0.004373 -0.258380 0.966034
vn 0.004373 -0.258380 0.966034
vn 0.006117 -0.011255 0.999918
vn -0.004605 -0.707102 0.707097
vn -0.004648 -0.866055 0.499927
vn 0.004648 -0.866055 0.499927
vn 0.004605 -0.707102 0.707097
vn 0.006165 -0.999977 0.002915
vn -0.866067 -0.008539 0.499856
vn -0.866067 0.008539 0.499856
vn -0.999932 0.011289 0.002901
vn -0.707085 -0.008457 0.707078
vn -0.707085 0.008457 0.707078
vn -0.258006 -0.008037 0.966110
vn -0.006117 0.011255 0.999918
vn -0.258005 0.008037 0.966110
vn 0.999932 -0.011289 0.002901
vn 0.965979 -0.258611 0.002069
vn 0.965979 -0.258611 -0.002069
vn 0.999932 -0.011289 -0.002901
vn 0.707104 -0.707106 0.002180
vn 0.499966 -0.866042 0.002200
vn 0.499966 -0.866042 -0.002200
vn 0.707104 -0.707106 -0.002180
vn 0.006165 -0.999977 -0.002915
vn 0.258005 -0.008037 0.966110
vn 0.258005 0.008037 0.966110
vn 0.006117 0.011255 0.999918
vn 0.707085 -0.008457 0.707078
vn 0.866066 -0.008539 0.499856
vn 0.866066 0.008539 0.499856
vn 0.707085 0.008457 0.707078
vn 0.999932 0.011289 0.002901
vn -0.866042 0.499966 0.002200
vn -0.866042 0.499967 -0.002200
vn -0.999932 0.011289 -0.002901
vn -0.707105 0.707106 0.002180
vn -0.707105 0.707106 -0.002180
vn -0.258612 0.965979 0.002069
vn -0.006165 0.999977 0.002915
vn -0.006165 0.999977 -0.002915
vn -0.258612 0.965979 -0.002069
vn -0.004648 0.866056 0.499926
vn 0.004648 0.866056 0.499926
vn 0.006165 0.999977 0.002915
vn -0.004605 0.707102 0.707097
vn 0.004605 0.707102 0.707097
vn -0.004373 0.258379 0.966034
vn 0.004373 0.258379 0.966034
vn 0.499966 0.866042 0.002200
vn 0.499966 0.866042 -0.002200
vn 0.006165 0.999977 -0.002915
vn 0.707104 0.707106 0.002180
vn 0.707104 0.707106 -0.002180
vn 0.965979 0.258611 0.002069
vn 0.999932 0.011289 -0.002901
vn 0.965979 0.258611 -0.002069
vn -0.966110 0.008037 -0.258007
vn -0.966110 -0.008037 -0.258007
vn -0.707080 0.008457 -0.707083
vn -0.707080 0.008457 -0.707083
vn -0.707080 -0.008457 -0.707083
vn -0.707080 -0.008457 -0.707083
vn -0.258001 0.008037 -0.966111
vn -0.006117 0.011255 -0.999918
vn -0.006117 -0.011255 -0.999918
vn -0.258001 -0.008037 -0.966111
vn -0.004373 0.258373 -0.966035
vn 0.004373 0.258373 -0.966035
vn 0.006117 0.011255 -0.999918
vn -0.004605 0.707098 -0.707100
vn -0.004605 0.707098 -0.707100
vn 0.004605 0.707098 -0.707100
vn 0.004605 0.707098 -0.707100
vn -0.004373 0.966034 -0.258378
vn 0.004373 0.966034 -0.258378
vn 0.258000 0.008037 -0.966111
vn 0.258000 -0.008037 -0.966111
vn 0.006117 -0.011255 -0.999918
vn 0.707080 0.008457 -0.707083
vn 0.707080 0.008457 -0.707083
vn 0.707079 -0.008457 -0.707084
vn 0.707079 -0.008457 -0.707084
vn 0.966110 0.008037 -0.258007
vn 0.966110 -0.008037 -0.258007
vn -0.004373 -0.966034 -0.258380
vn 0.004373 -0.966034 -0.258380
vn -0.004605 -0.707098 -0.707100
vn -0.004605 -0.707098 -0.707100
vn 0.004605 -0.707098 -0.707100
vn 0.004605 -0.707098 -0.707100
vn -0.004373 -0.258373 -0.966035
vn 0.004373 -0.258373 -0.966035
vn -0.946103 -0.229006 0.229008
vn -0.707843 -0.499479 0.499479
vn -0.499480 -0.707842 0.499479
vn -0.229007 -0.946103 0.229007
vn -0.499480 -0.499481 0.707841
vn -0.229012 -0.229008 0.946102
vn 0.229007 -0.946103 0.229007
vn 0.499479 -0.707842 0.499480
vn 0.707841 -0.499480 0.499480
vn 0.946103 -0.229007 0.229007
vn 0.499479 -0.499481 0.707841
vn 0.229012 -0.229008 0.946102
vn -0.229007 0.946103 0.229008
vn -0.499481 0.707841 0.499479
vn -0.707842 0.499479 0.499479
vn -0.946104 0.229004 0.229007
vn -0.499482 0.499480 0.707840
vn -0.229008 0.229008 0.946103
vn 0.946103 0.229007 0.229007
vn 0.707842 0.499479 0.499480
vn 0.499479 0.707842 0.499481
vn 0.229006 0.946104 0.229007
vn 0.499480 0.499481 0.707841
vn 0.229009 0.229008 0.946103
vn -0.229009 0.229008 -0.946103
vn -0.499481 0.499480 -0.707841
vn -0.707839 0.499483 -0.499480
vn -0.946104 0.229007 -0.229006
vn -0.499483 0.707839 -0.499481
vn -0.229008 0.946103 -0.229007
vn 0.946103 0.229008 -0.229007
vn 0.707840 0.499481 -0.499481
vn 0.499480 0.499480 -0.707842
vn 0.229008 0.229008 -0.946103
vn 0.499483 0.707839 -0.499481
vn 0.229007 0.946104 -0.229006
vn -0.229007 -0.946104 -0.229006
vn -0.499483 -0.707840 -0.499480
vn -0.707840 -0.499483 -0.499480
vn -0.946103 -0.229008 -0.229006
vn -0.499479 -0.499480 -0.707842
vn -0.229012 -0.229008 -0.946102
vn 0.946103 -0.229008 -0.229006
vn 0.707839 -0.499482 -0.499481
vn 0.499481 -0.707840 -0.499481
vn 0.229007 -0.946104 -0.229006
vn 0.499478 -0.499480 -0.707842
vn 0.229011 -0.229008 -0.946102
s 1
g pCube5
usemtl initialShadingGroup
f 3/65/1 2/66/2 55/67/3 63/68/4
f 2/11/5 1/1/6 56/4/7 55/12/8
f 1/1/6 9/2/9 57/3/10 56/4/7
s 3
f 6/113/11 5/114/12 16/115/13 15/116/14
s 1
f 5/76/15 4/69/16 17/75/17 16/84/18
f 4/69/16 3/65/1 18/74/19 17/75/17
f 9/2/9 8/5/20 22/13/21 21/7/22
f 8/5/20 7/16/23 23/23/24 22/13/21
s 3
f 7/117/25 6/113/11 24/122/26 23/123/27
s 1
f 12/33/28 11/34/29 64/35/30 72/36/31
f 11/34/32 10/39/33 65/40/34 64/35/35
f 10/81/33 18/74/19 66/73/36 65/82/34
s 3
f 15/116/14 14/119/37 34/124/38 33/121/39
s 1
f 14/46/40 13/37/41 35/45/42 34/56/43
f 13/37/41 12/33/28 36/44/44 35/45/42
f 21/7/22 20/17/45 40/18/46 39/8/47
f 20/17/45 19/25/48 41/26/49 40/18/46
f 19/89/50 27/90/51 42/91/52 41/92/53
f 27/90/51 26/93/54 31/99/55 30/95/56
f 26/93/54 25/101/57 32/107/58 31/99/55
s 3
f 25/125/59 24/122/26 33/121/39 32/126/60
s 1
f 30/95/56 29/102/61 52/103/62 51/96/63
f 29/59/61 28/53/64 53/54/65 52/60/62
f 28/53/66 36/44/44 54/43/67 53/54/68
f 39/8/47 38/19/69 58/9/70 57/3/10
f 38/19/71 37/28/72 59/20/73 58/9/74
s 10
f 37/129/75 45/130/76 60/131/77 59/132/78
f 45/130/76 44/133/79 49/139/80 48/135/81
s 1
f 44/105/82 43/97/83 50/104/84 49/110/85
f 43/97/86 42/91/52 51/96/63 50/104/87
s 10
f 48/135/81 47/140/88 70/141/89 69/136/90
s 1
f 47/58/91 46/50/92 71/41/93 70/52/94
f 46/50/95 54/43/67 72/36/31 71/41/96
f 63/68/4 62/71/97 67/78/98 66/73/36
f 62/71/99 61/80/100 68/85/101 67/78/102
s 10
f 61/137/103 60/131/77 69/136/90 68/142/104
s 3
f 6/113/11 15/116/14 33/121/39 24/122/26
s 1
f 27/90/51 30/95/56 51/96/63 42/91/52
s 10
f 45/130/76 48/135/81 69/136/90 60/131/77
s 1
f 63/68/4 66/73/36 18/74/19 3/65/1
f 12/33/28 72/36/31 54/43/67 36/44/44
f 57/3/10 9/2/9 21/7/22 39/8/47
f 8/5/20 9/2/9 1/1/6 73/6/105
f 73/6/106 1/1/6 2/11/5 74/14/107
f 2/66/2 3/65/1 4/69/16 74/70/108
f 74/70/107 4/69/16 5/76/15 75/77/109
s 3
f 5/114/12 6/113/11 7/117/25 75/118/110
s 1
f 75/15/109 7/16/23 8/5/20 73/6/106
f 73/6/106 74/14/107 75/15/109
f 17/75/17 18/74/19 10/81/33 76/83/111
f 76/48/112 10/39/33 11/34/32 77/38/113
f 11/34/29 12/33/28 13/37/41 77/38/114
f 77/38/113 13/37/41 14/46/40 78/47/115
s 3
f 14/119/37 15/116/14 16/115/13 78/120/116
s 1
f 78/87/115 16/84/18 17/75/17 76/83/112
f 76/48/112 77/38/113 78/47/115
f 26/93/54 27/90/51 19/89/50 79/94/117
f 79/30/118 19/25/48 20/17/45 80/24/119
f 20/17/45 21/7/22 22/13/21 80/24/120
f 80/24/119 22/13/21 23/23/24 81/29/121
s 3
f 23/123/27 24/122/26 25/125/59 81/127/122
s 1
f 81/100/121 25/101/57 26/93/54 79/94/118
f 79/30/118 80/24/119 81/29/121
f 35/45/42 36/44/44 28/53/66 82/55/123
f 82/55/124 28/53/64 29/59/61 83/61/125
f 29/102/61 30/95/56 31/99/55 83/108/126
f 83/108/125 31/99/55 32/107/58 84/111/127
s 3
f 32/126/60 33/121/39 34/124/38 84/128/128
s 1
f 84/62/127 34/56/43 35/45/42 82/55/124
f 82/55/124 83/61/125 84/62/127
s 10
f 44/133/79 45/130/76 37/129/75 85/134/129
s 1
f 85/32/130 37/28/72 38/19/71 86/27/131
f 38/19/69 39/8/47 40/18/46 86/27/132
f 86/27/131 40/18/46 41/26/49 87/31/133
f 41/92/53 42/91/52 43/97/86 87/98/134
f 87/98/133 43/97/83 44/105/82 85/106/130
f 85/32/130 86/27/131 87/31/133
f 53/54/68 54/43/67 46/50/95 88/57/135
f 88/57/136 46/50/92 47/58/91 89/63/137
s 10
f 47/140/88 48/135/81 49/139/80 89/143/138
s 1
f 89/112/137 49/110/85 50/104/84 90/109/139
f 50/104/87 51/96/63 52/103/62 90/109/140
f 90/64/139 52/60/62 53/54/65 88/57/136
f 88/57/136 89/63/137 90/64/139
f 62/71/97 63/68/4 55/67/3 91/72/141
f 91/22/142 55/12/8 56/4/7 92/10/143
f 56/4/7 57/3/10 58/9/70 92/10/144
f 92/10/143 58/9/74 59/20/73 93/21/145
s 10
f 59/132/78 60/131/77 61/137/103 93/138/146
s 1
f 93/79/145 61/80/100 62/71/99 91/72/142
f 91/22/142 92/10/143 93/21/145
f 71/41/96 72/36/31 64/35/30 94/42/147
f 94/42/148 64/35/35 65/40/34 95/49/149
f 65/82/34 66/73/36 67/78/98 95/86/150
f 95/86/149 67/78/102 68/85/101 96/88/151
s 10
f 68/142/104 69/136/90 70/141/89 96/144/152
s 1
f 96/51/151 70/52/94 71/41/93 94/42/148
f 94/42/148 95/49/149 96/51/151
