# This file uses centimeters as units for non-parametric coordinates.

mtllib Money.mtl
g default
v -11.106113 0.000000 -12.885811
v -7.873244 0.000000 -12.885811
v -11.106113 0.715313 -12.885811
v -7.873244 0.715313 -12.885811
v -11.106113 0.715313 -18.850216
v -7.873244 0.715313 -18.850216
v -11.106113 0.000000 -18.850216
v -7.873244 0.000000 -18.850216
v -11.106113 0.715313 -13.254202
v -11.106113 0.000000 -13.254203
v -7.873244 0.000000 -13.254203
v -7.873244 0.715313 -13.254202
v -11.106113 0.000000 -18.475437
v -11.106113 0.715313 -18.475434
v -7.873244 0.715313 -18.475434
v -7.873244 0.000000 -18.475437
v -8.187886 -0.000000 -12.885811
v -8.187886 0.715313 -12.885811
v -8.187885 0.715313 -13.254202
v -8.187886 0.715313 -18.475434
v -8.187886 0.715313 -18.850216
v -8.187886 -0.000000 -18.850216
v -8.187885 0.000000 -18.475436
v -8.187886 -0.000000 -13.254203
v -10.821143 -0.000000 -12.885811
v -10.821143 0.715313 -12.885811
v -10.821142 0.715313 -13.254202
v -10.821143 0.715313 -18.475434
v -10.821143 0.715313 -18.850216
v -10.821143 -0.000000 -18.850216
v -10.821142 0.000000 -18.475437
v -10.821143 -0.000000 -13.254203
vt 0.375000 0.000000
vt 0.625000 0.000000
vt 0.375000 0.250000
vt 0.625000 0.250000
vt 0.375000 0.500000
vt 0.625000 0.500000
vt 0.375000 0.750000
vt 0.625000 0.750000
vt 0.375000 1.000000
vt 0.625000 1.000000
vt 0.875000 0.000000
vt 0.875000 0.250000
vt 0.125000 0.000000
vt 0.125000 0.250000
vt 0.359559 0.250000
vt 0.375000 0.265441
vt 0.359559 0.000000
vt 0.375000 0.984559
vt 0.625000 0.984559
vt 0.640441 0.000000
vt 0.625000 0.265441
vt 0.640441 0.250000
vt 0.140709 0.000000
vt 0.375000 0.765709
vt 0.140709 0.250000
vt 0.375000 0.484291
vt 0.625000 0.484291
vt 0.859291 0.250000
vt 0.625000 0.765709
vt 0.859291 0.000000
vt 0.600668 0.000000
vt 0.600668 1.000000
vt 0.600668 0.250000
vt 0.600669 0.265441
vt 0.600668 0.484291
vt 0.600668 0.500000
vt 0.600668 0.750000
vt 0.600669 0.765709
vt 0.600668 0.984559
vt 0.397037 0.000000
vt 0.397037 1.000000
vt 0.397037 0.250000
vt 0.397037 0.265441
vt 0.397037 0.484291
vt 0.397037 0.500000
vt 0.397037 0.750000
vt 0.397037 0.765709
vt 0.397037 0.984559
vn -0.000000 0.000000 1.000000
vn -0.000000 0.000000 1.000000
vn -0.000000 0.000000 1.000000
vn -0.000000 0.000000 1.000000
vn -0.000000 0.000000 1.000000
vn -0.000000 0.000000 1.000000
vn -0.000000 0.000000 1.000000
vn -0.000000 0.000000 1.000000
vn -0.000000 0.000000 -1.000000
vn -0.000000 0.000000 -1.000000
vn -0.000000 0.000000 -1.000000
vn -0.000000 0.000000 -1.000000
vn -0.000000 0.000000 -1.000000
vn -0.000000 0.000000 -1.000000
vn -0.000000 0.000000 -1.000000
vn -0.000000 0.000000 -1.000000
vn 0.000000 -1.000000 0.000000
vn 0.000000 -1.000000 0.000000
vn 0.000000 -1.000000 0.000000
vn 0.000000 -1.000000 0.000000
vn 0.000000 -1.000000 0.000000
vn 0.000000 -1.000000 0.000000
vn 0.000000 -1.000000 0.000000
vn 0.000000 -1.000000 0.000000
vn 0.000000 -1.000000 0.000000
vn 0.000000 -1.000000 0.000000
vn 0.000000 -1.000000 0.000000
vn 0.000000 -1.000000 0.000000
vn 0.000000 -1.000000 -0.000000
vn 0.000000 -1.000000 -0.000000
vn 0.000000 -1.000000 -0.000000
vn 0.000000 -1.000000 -0.000000
vn 1.000000 -0.000000 0.000000
vn 1.000000 -0.000000 0.000000
vn 1.000000 -0.000000 0.000000
vn 1.000000 -0.000000 0.000000
vn 1.000000 -0.000000 0.000000
vn 1.000000 -0.000000 0.000000
vn 1.000000 -0.000000 0.000000
vn 1.000000 -0.000000 0.000000
vn -1.000000 0.000000 0.000000
vn -1.000000 0.000000 0.000000
vn -1.000000 0.000000 0.000000
vn -1.000000 0.000000 0.000000
vn -1.000000 0.000000 0.000000
vn -1.000000 0.000000 0.000000
vn -1.000000 0.000000 0.000000
vn -1.000000 0.000000 0.000000
vn 0.000000 1.000000 0.000000
vn 0.000000 1.000000 0.000000
vn 0.000000 1.000000 0.000000
vn 0.000000 1.000000 0.000000
vn 0.000000 1.000000 0.000000
vn 0.000000 1.000000 0.000000
vn 0.000000 1.000000 0.000000
vn 0.000000 1.000000 0.000000
vn 0.000000 1.000000 0.000000
vn 0.000000 1.000000 0.000000
vn 0.000000 1.000000 0.000000
vn 0.000000 1.000000 0.000000
vn 0.000000 1.000000 0.000000
vn 0.000000 1.000000 0.000000
vn 0.000000 1.000000 0.000000
vn 0.000000 1.000000 0.000000
s off
g pCube6
usemtl blinn1SG
f 26/42/1 3/3/2 1/1/3 25/40/4 17/31/5 2/2/6 4/4/7 18/33/8
f 22/37/9 30/46/10 7/7/11 5/5/12 29/45/13 21/36/14 6/6/15 8/8/16
s 1
usemtl standardSurface3SG
f 25/41/17 1/9/18 10/18/19 13/24/20 7/7/21 30/46/22 22/37/23 8/8/24 16/29/25 11/19/26 2/10/27 17/32/28 32/48/29 24/39/30 23/38/31 31/47/32
s off
usemtl blinn1SG
f 12/22/33 4/4/34 2/2/35 11/20/36 16/30/37 8/11/38 6/12/39 15/28/40
f 14/25/41 5/14/42 7/13/43 13/23/44 10/17/45 1/1/46 3/3/47 9/15/48
s 2
usemtl standardSurface3SG
f 29/45/49 5/5/50 14/26/51 9/16/52 3/3/53 26/42/54 18/33/55 4/4/56 12/21/57 15/27/58 6/6/59 21/36/60 20/35/61 19/34/62 27/43/63 28/44/64
usemtl blinn2SG
f 28/44/64 27/43/63 19/34/62 20/35/61
s 1
f 32/48/29 31/47/32 23/38/31 24/39/30
