<?xml version="1.0" encoding="utf-8"?>
<!-- Generated by IcoMoon.io -->
<!DOCTYPE svg PUBLIC "-//W3C//DTD SVG 1.1//EN" "http://www.w3.org/Graphics/SVG/1.1/DTD/svg11.dtd">
<svg version="1.1" xmlns="http://www.w3.org/2000/svg" xmlns:xlink="http://www.w3.org/1999/xlink" width="512" height="512" viewBox="0 0 512 512">
<g>
</g>
	<path d="M384.645 256c0 70.942-57.702 128.655-128.655 128.655-70.942 0-128.655-57.712-128.655-128.655 0-70.912 57.723-128.635 128.655-128.635 70.963 0 128.655 57.713 128.655 128.635zM255.99 98.969c-86.558 0-157.020 70.42-157.020 157.031s70.462 157.041 157.020 157.041c86.579 0 157.061-70.441 157.061-157.041 0-86.61-70.482-157.030-157.061-157.030z" fill="#000000" />
	<path d="M270.192 216.75v-206.428h-28.395v206.418c4.485-1.607 9.196-2.631 14.203-2.631s9.707 1.024 14.192 2.642z" fill="#000000" />
	<path d="M241.787 295.26v206.418h28.395v-206.418c-4.485 1.608-9.195 2.642-14.203 2.642s-9.708-1.034-14.192-2.642z" fill="#000000" />
	<path d="M216.73 241.808h-212.121v28.375h212.121c-1.618-4.454-2.642-9.185-2.642-14.213 0-4.976 1.024-9.718 2.642-14.162z" fill="#000000" />
	<path d="M507.392 241.808h-212.142c1.618 4.444 2.642 9.175 2.642 14.172 0 5.018-1.024 9.758-2.642 14.213h212.142v-28.386z" fill="#000000" />
</svg>
